
<svg xmlns="http://www.w3.org/2000/svg" version="1.1" xmlns:xlink="http://www.w3.org/1999/xlink" preserveAspectRatio="none" x="0px" y="0px" width="200px" height="50px" viewBox="0 0 200 50">
<defs>
<g id="Symbol_1_0_Layer0_0_FILL">
<path fill="#CCCCCC" stroke="none" d="
M 0.1 23.25
Q 3.1 23.25 5.2 22.7 7.3 22.2 7.3 21.45 7.3 20.7 5.2 20.15 3.1 19.65 0.1 19.65 -2.9 19.65 -5 20.15 -7.1 20.7 -7.1 21.45 -7.1 22.2 -5 22.7 -2.9 23.25 0.1 23.25 Z"/>
</g>

<g id="Symbol_7_0_Layer0_0_FILL">
<path fill="#FF0000" stroke="none" d="
M 32.45 60.3
Q 32.35 60.2 32.25 60.1 31.5 58.7 30.8 57.25 30.7 57.05 30.6 56.85 30.45 56.55 30.3 56.25 29.55 54.5 29 52.75
L 11.9 52.75
Q 23.6 63.2 38.35 69.1 38 68.25 37.7 67.4 34.6 64.05 32.45 60.3 Z"/>

<path fill="#FF3300" stroke="none" d="
M 27.15 40.3
L 0.25 40.3
Q 5.55 47.05 11.7 52.6 11.8 52.65 11.9 52.75
L 29 52.75
Q 28.8 52.05 28.6 51.4 28.4 50.65 28.2 49.95 27.15 45.35 27.15 40.3 Z"/>

<path fill="#FF6600" stroke="none" d="
M 11.55 27.85
Q 11.25 28.1 10.95 28.4 5.2 33.65 0.2 40
L 0 40
Q 0.05 40.05 0.1 40.15 0.05 40.2 0 40.3
L 0.25 40.3 27.15 40.3
Q 27.15 40.25 27.15 40.2 27.15 40.1 27.15 40 27.2 33.55 28.95 27.85
L 11.55 27.85 Z"/>

<path fill="#FF9900" stroke="none" d="
M 41.3 9.5
Q 42.15 8.75 43.05 8.05 41.5 9.2 40.05 10.55 25.4 16.1 13.7 26 12.6 26.9 11.55 27.85
L 28.95 27.85
Q 29 27.6 29.1 27.35 30.3 23.75 32.15 20.5 32.35 20.25 32.5 19.95 35.05 15.55 38.95 11.65 40.05 10.55 41.3 9.5 Z"/>

<path fill="#0066CC" stroke="none" d="
M 96.25 69.1
Q 96.2 69.1 96.15 69.15 92.6 73.9 88.65 77.2 88.55 77.35 88.45 77.5 86.95 78.65 85.4 79.75 85.2 79.9 85 80.05 84.65 80.25 84.35 80.45 82.65 81.5 80.85 82.35 74.5 85.35 67.25 85.35 61.85 85.35 56.9 83.7 56.15 83.4 55.35 83.1 52.75 82.05 50.25 80.5 49.9 80.25 49.6 80.05 49.4 79.9 49.15 79.75 47.65 78.65 46.15 77.5 46.05 77.35 45.95 77.2 41.95 73.9 38.4 69.15 47.45 91.75 67.15 107.2
L 67.15 107.45
Q 67.25 107.4 67.3 107.35 67.4 107.4 67.45 107.45
L 67.45 107.25
Q 87.15 91.75 96.25 69.1
M 102.45 20.5
Q 102.25 20.25 102.1 19.95 101.3 18.55 100.35 17.2
L 98.85 15.2
Q 98.4 14.65 97.95 14.15 97.8 13.975 97.65 13.8
L 96.65 12.7
Q 96.25 12.25 95.8 11.8 95.75 11.75 95.65 11.65 95.15 11.15 94.65 10.7 94.45 10.5 94.25 10.35
L 93.8 9.9
Q 93.55 9.7 93.3 9.5 93.1537109375 9.3537109375 93 9.2 92.9537109375 9.191796875 92.9 9.15
L 91.55 8.05 89.5 6.6
Q 88.5 5.95 87.5 5.35 87.2 5.2 86.95 5
L 86.15 4.55
Q 83.25 3 80.1 1.95 74.1 0 67.25 0 63.4 0 59.85 0.6
L 57.5 1.05
Q 56.8 1.25 56.05 1.45 55.95 1.45 55.9 1.5
L 55.7 1.55
Q 55.5 1.6 55.3 1.7 54.75 1.85 54.2 2.05 51.65 2.9 49.3 4.1 48.5 4.5 47.7 4.95 47.45 5.1 47.2 5.25
L 47.15 5.3
Q 46.45 5.7 45.8 6.1
L 43.05 8.05
Q 42.15 8.75 41.3 9.5 40.05 10.55 38.95 11.65 35.05 15.55 32.5 19.95 32.35 20.25 32.15 20.5 30.3 23.75 29.1 27.35 29 27.6 28.95 27.85 27.2 33.55 27.15 40 27.15 40.1 27.15 40.2 27.15 40.25 27.15 40.3 27.15 45.35 28.2 49.95 28.4 50.65 28.6 51.4 28.8 52.05 29 52.75 29.55 54.5 30.3 56.25 30.45 56.55 30.6 56.85 30.7 57.05 30.8 57.25 31.5 58.7 32.25 60.1 32.35 60.2 32.45 60.3 34.6 64.05 37.7 67.4
L 40.05 69.75
Q 43.4 72.85 47.15 75 47.25 75.1 47.35 75.2 48.75 75.95 50.2 76.65 50.4 76.75 50.6 76.85 50.9 77 51.2 77.15 53.6 78.15 56.05 78.85 56.8 79.05 57.5 79.25 62.15 80.3 67.25 80.3 74.1 80.3 80.1 78.35 81.8 77.8 83.4 77.1 85.2 76.3 86.95 75.3 87.2 75.1 87.5 74.95 91.9 72.4 95.8 68.5 96.9 67.4 97.95 66.15 98.7 65.3 99.45 64.4
L 101.35 61.65
Q 101.75 61 102.15 60.3
L 102.2 60.25
Q 102.8 59.2 103.35 58.15 103.45 57.95 103.55 57.75
L 103.8 57.25
Q 104.188671875 56.4375 104.55 55.6 104.6943359375 55.2875 104.85 54.95
L 105.6 52.75
Q 105.8 52.05 106 51.4 106.2 50.65 106.4 49.95
L 106.9 47.65
Q 107.45 44.1 107.45 40.3 107.45 40.25 107.45 40.2 107.45 40.1 107.45 40 107.4 33.25 105.5 27.35 104.3 23.75 102.45 20.5
M 92.55 40.2
Q 92.55 40.25 92.55 40.3 92.5 50.65 85.1 58.05 77.8 65.35 67.45 65.45 67.3 65.45 67.2 65.45 56.85 65.35 49.55 58.05 42.15 50.65 42.1 40.3 42.1 40.25 42.1 40.2 42.1 40.1 42.1 40 42.15 29.65 49.55 22.3 56.85 14.95 67.2 14.9 67.3 14.9 67.45 14.9 77.8 14.95 85.1 22.3 92.5 29.65 92.55 40 92.55 40.1 92.55 40.2 Z"/>

<path fill="#0056AD" stroke="none" d="
M 96.15 69.15
Q 96.2 69.1 96.25 69.1 96.6 68.25 96.9 67.4 98.25 65.95 99.45 64.4 98.7 65.3 97.95 66.15 96.9 67.4 95.8 68.5 91.9 72.4 87.5 74.95 87.2 75.1 86.95 75.3 85.2 76.3 83.4 77.1 81.8 77.8 80.1 78.35 74.1 80.3 67.25 80.3 62.15 80.3 57.5 79.25 56.8 79.05 56.05 78.85 53.6 78.15 51.2 77.15 50.9 77 50.6 76.85 50.4 76.75 50.2 76.65 48.75 75.95 47.35 75.2 47.25 75.1 47.15 75 43.4 72.85 40.05 69.75
L 37.7 67.4
Q 38 68.25 38.35 69.1 38.35 69.15 38.4 69.15 41.95 73.9 45.95 77.2 46.05 77.35 46.15 77.5 47.65 78.65 49.15 79.75 49.4 79.9 49.6 80.05 49.9 80.25 50.25 80.5 52.75 82.05 55.35 83.1 56.15 83.4 56.9 83.7 61.85 85.35 67.25 85.35 74.5 85.35 80.85 82.35 82.65 81.5 84.35 80.45 84.65 80.25 85 80.05 85.2 79.9 85.4 79.75 86.95 78.65 88.45 77.5 88.55 77.35 88.65 77.2 92.6 73.9 96.15 69.15 Z"/>

<path fill="#FFFFFF" stroke="none" d="
M 92.55 40.3
Q 92.55 40.25 92.55 40.2 92.55 40.1 92.55 40 92.5 29.65 85.1 22.3 77.8 14.95 67.45 14.9 67.3 14.9 67.2 14.9 56.85 14.95 49.55 22.3 42.15 29.65 42.1 40 42.1 40.1 42.1 40.2 42.1 40.25 42.1 40.3 42.15 50.65 49.55 58.05 56.85 65.35 67.2 65.45 67.3 65.45 67.45 65.45 77.8 65.35 85.1 58.05 92.5 50.65 92.55 40.3
M 83.9 36.5
Q 83.9 38.35 83.45 40 82.6 42.7 80.5 44.85 77.05 48.25 72.15 48.25 67.35 48.25 63.85 44.85 61.7 42.7 60.9 40 60.4 38.35 60.4 36.5 60.4 31.65 63.85 28.2 67.35 24.7 72.15 24.7 74 24.7 75.55 25.2 75.4 25.4 75.1 25.6 73.1 27.65 73.1 30.55 73.1 33.35 75.1 35.35 77.15 37.35 80 37.35 82.25 37.35 83.9 36.2 83.9 36.35 83.9 36.5 Z"/>

<path fill="#000000" stroke="none" d="
M 83.45 40
Q 83.9 38.35 83.9 36.5 83.9 36.35 83.9 36.2 82.25 37.35 80 37.35 77.15 37.35 75.1 35.35 73.1 33.35 73.1 30.55 73.1 27.65 75.1 25.6 75.4 25.4 75.55 25.2 74 24.7 72.15 24.7 67.35 24.7 63.85 28.2 60.4 31.65 60.4 36.5 60.4 38.35 60.9 40 61.7 42.7 63.85 44.85 67.35 48.25 72.15 48.25 77.05 48.25 80.5 44.85 82.6 42.7 83.45 40
M 134.6 40
L 134.4 40
Q 118.3 19.55 94.55 10.55 93.1 9.2 91.55 8.05
L 92.9 9.15
Q 92.9537109375 9.191796875 93 9.2 93.4037109375 9.5478515625 93.8 9.9
L 94.25 10.35
Q 94.45 10.5 94.65 10.7 95.15 11.15 95.65 11.65 95.75 11.75 95.8 11.8 96.25 12.25 96.65 12.7
L 97.65 13.8
Q 97.8 13.975 97.95 14.15 98.4 14.65 98.85 15.2
L 100.35 17.2
Q 101.3 18.55 102.1 19.95 102.25 20.25 102.45 20.5 104.3 23.75 105.5 27.35 107.4 33.25 107.45 40 107.45 40.1 107.45 40.2 107.45 40.25 107.45 40.3 107.45 44.1 106.9 47.65
L 106.4 49.95
Q 106.2 50.65 106 51.4 105.8 52.05 105.6 52.75
L 104.85 54.95
Q 104.6943359375 55.2875 104.55 55.6 104.188671875 56.4375 103.8 57.25
L 103.55 57.75
Q 103.45 57.95 103.35 58.15 102.8 59.2 102.2 60.25
L 102.15 60.3
Q 101.75 61 101.35 61.65
L 99.45 64.4
Q 98.25 65.95 96.9 67.4 96.6 68.25 96.25 69.1 118.85 60 134.35 40.3
L 134.6 40.3
Q 134.55 40.2 134.5 40.15 134.55 40.05 134.6 40
M 125.3 36.85
L 125.25 36.9
Q 124.5 37.8 121.85 36.75 119.1 35.75 115.95 33.35 112.75 30.95 111 28.6 109.25 26.3 109.9 25.35
L 109.95 25.3
Q 110.65 24.45 113.35 25.45 116.1 26.5 119.3 28.9 122.45 31.3 124.2 33.6 125.9 35.95 125.3 36.85 Z"/>

<path fill="#3F3F3F" stroke="none" d="
M 125.25 36.9
L 125.3 36.85
Q 125.9 35.95 124.2 33.6 122.45 31.3 119.3 28.9 116.1 26.5 113.35 25.45 110.65 24.45 109.95 25.3
L 109.9 25.35
Q 109.25 26.3 111 28.6 112.75 30.95 115.95 33.35 119.1 35.75 121.85 36.75 124.5 37.8 125.25 36.9 Z"/>
</g>

<g id="Symbol_2_0_Layer0_0_FILL">
<path fill="#666666" stroke="none" d="
M 23.8 0.65
L 23.65 1.35 24.4 1.35 24.55 0.65 23.8 0.65
M 22.1 -0.3
Q 21.75 -0.4 21.7 -0.45 21.6 -0.5 21.6 -0.6 21.6 -0.7 21.7 -0.8 21.8 -0.85 22 -0.85 22.25 -0.85 22.4 -0.75 22.5 -0.7 22.55 -0.55
L 23.2 -0.65
Q 23.15 -1 22.9 -1.15 22.6 -1.35 22.1 -1.35 21.45 -1.35 21.15 -1.05 20.9 -0.8 20.9 -0.5 20.9 -0.2 21.15 0 21.3 0.15 21.95 0.35 22.2 0.45 22.25 0.5 22.3 0.55 22.3 0.6 22.3 0.7 22.2 0.8 22.05 0.9 21.8 0.9 21.55 0.9 21.45 0.8 21.3 0.7 21.2 0.5
L 20.5 0.6
Q 20.6 1 20.95 1.2 21.25 1.4 21.8 1.4 22.4 1.4 22.7 1.15 23.05 0.85 23.05 0.5 23.05 0.2 22.8 0 22.6 -0.15 22.1 -0.3
M 19.9 -1.05
Q 19.6 -1.35 19.1 -1.35 18.35 -1.35 17.95 -0.8 17.65 -0.35 17.65 0.2 17.65 0.75 18 1.1 18.3 1.4 18.85 1.4 19.25 1.4 19.55 1.2 19.85 1.05 20.05 0.65
L 19.4 0.55
Q 19.2 0.9 18.85 0.9 18.65 0.9 18.5 0.75 18.35 0.6 18.35 0.3
L 18.35 0.25 20.15 0.25
Q 20.2 0.05 20.2 -0.2 20.2 -0.75 19.9 -1.05
M 18.4 -0.2
Q 18.45 -0.5 18.65 -0.7 18.8 -0.85 19.05 -0.85 19.25 -0.85 19.4 -0.7 19.55 -0.55 19.55 -0.25
L 19.55 -0.2 18.4 -0.2
M 17.2 -1.3
L 16.5 -1.3 15.95 1.35 16.65 1.35 17.2 -1.3
M 17.45 -2.3
L 16.7 -2.3 16.6 -1.65 17.3 -1.65 17.45 -2.3
M 13.8 -0.2
Q 13.9 -0.5 14.1 -0.65 14.25 -0.85 14.45 -0.85 14.65 -0.85 14.75 -0.7 14.85 -0.6 14.9 -0.4
L 15.6 -0.45
Q 15.55 -0.85 15.25 -1.1 15 -1.35 14.5 -1.35 14.1 -1.35 13.75 -1.15 13.35 -0.9 13.2 -0.55 13 -0.15 13 0.3 13 0.8 13.3 1.1 13.6 1.4 14.1 1.4 14.55 1.4 14.9 1.15 15.2 0.95 15.4 0.45
L 14.7 0.35
Q 14.6 0.6 14.45 0.75 14.3 0.85 14.1 0.85 13.95 0.85 13.85 0.7 13.7 0.6 13.7 0.35 13.7 0.1 13.8 -0.2
M 12.2 -1.05
Q 11.9 -1.35 11.4 -1.35 10.65 -1.35 10.25 -0.8 9.95 -0.35 9.95 0.2 9.95 0.75 10.3 1.1 10.6 1.4 11.15 1.4 11.55 1.4 11.85 1.2 12.15 1.05 12.35 0.65
L 11.7 0.55
Q 11.5 0.9 11.15 0.9 10.95 0.9 10.8 0.75 10.65 0.6 10.65 0.3
L 10.65 0.25 12.45 0.25
Q 12.5 0.05 12.5 -0.2 12.5 -0.75 12.2 -1.05
M 10.95 -0.7
Q 11.1 -0.85 11.35 -0.85 11.55 -0.85 11.7 -0.7 11.85 -0.55 11.85 -0.25
L 11.85 -0.2 10.7 -0.2
Q 10.75 -0.5 10.95 -0.7
M 7.7 -1
L 7.75 -1.3 7.1 -1.3 6.3 2.35 7.05 2.35 7.3 1
Q 7.6 1.4 8.1 1.4 8.65 1.4 9 1 9.45 0.5 9.45 -0.2 9.45 -0.8 9.2 -1.05 8.95 -1.35 8.5 -1.35 8.3 -1.35 8.1 -1.3 7.9 -1.2 7.7 -1
M 7.6 -0.25
Q 7.7 -0.55 7.85 -0.7 8.05 -0.85 8.25 -0.85 8.45 -0.85 8.6 -0.7 8.75 -0.55 8.75 -0.25 8.75 0 8.65 0.3 8.55 0.6 8.35 0.75 8.2 0.85 8 0.85 7.8 0.85 7.65 0.7 7.5 0.55 7.5 0.2 7.5 0 7.6 -0.25
M 5 -0.3
Q 4.65 -0.4 4.6 -0.45 4.5 -0.5 4.5 -0.6 4.5 -0.7 4.6 -0.8 4.7 -0.85 4.9 -0.85 5.15 -0.85 5.3 -0.75 5.4 -0.7 5.45 -0.55
L 6.1 -0.65
Q 6.05 -1 5.8 -1.15 5.5 -1.35 5 -1.35 4.35 -1.35 4.05 -1.05 3.8 -0.8 3.8 -0.5 3.8 -0.2 4.05 0 4.2 0.15 4.85 0.35 5.1 0.45 5.15 0.5 5.2 0.55 5.2 0.6 5.2 0.7 5.1 0.8 4.95 0.9 4.7 0.9 4.45 0.9 4.35 0.8 4.2 0.7 4.1 0.5
L 3.4 0.6
Q 3.5 1 3.85 1.2 4.15 1.4 4.7 1.4 5.3 1.4 5.6 1.15 5.95 0.85 5.95 0.5 5.95 0.2 5.7 0 5.5 -0.15 5 -0.3
M 1.8 -2.3
L 1.1 -2.3 0.8 -0.95
Q 0.55 -1.35 0 -1.35 -0.6 -1.35 -0.95 -0.85 -1.3 -0.35 -1.3 0.3 -1.3 0.85 -1.05 1.15 -0.8 1.4 -0.4 1.4 -0.15 1.4 0.05 1.35 0.25 1.25 0.45 1.05
L 0.35 1.35 1.05 1.35 1.8 -2.3
M 0.1 -0.85
Q 0.3 -0.85 0.45 -0.65 0.6 -0.5 0.6 -0.2 0.6 0.05 0.5 0.35 0.4 0.6 0.25 0.75 0.1 0.9 -0.1 0.9 -0.3 0.9 -0.45 0.7 -0.6 0.55 -0.6 0.25 -0.6 -0.15 -0.4 -0.5 -0.2 -0.85 0.1 -0.85
M -2.9 -1.35
Q -3.65 -1.35 -4.05 -0.8 -4.35 -0.35 -4.35 0.2 -4.35 0.75 -4 1.1 -3.7 1.4 -3.15 1.4 -2.75 1.4 -2.45 1.2 -2.15 1.05 -1.95 0.65
L -2.6 0.55
Q -2.8 0.9 -3.15 0.9 -3.35 0.9 -3.5 0.75 -3.65 0.6 -3.65 0.3
L -3.65 0.25 -1.85 0.25
Q -1.8 0.05 -1.8 -0.2 -1.8 -0.75 -2.1 -1.05 -2.4 -1.35 -2.9 -1.35
M -3.6 -0.2
Q -3.55 -0.5 -3.35 -0.7 -3.2 -0.85 -2.95 -0.85 -2.75 -0.85 -2.6 -0.7 -2.45 -0.55 -2.45 -0.25
L -2.45 -0.2 -3.6 -0.2
M -5.6 -0.2
Q -5.5 -0.45 -5.3 -0.6 -5.1 -0.75 -4.9 -0.75 -4.8 -0.75 -4.7 -0.7
L -4.45 -1.3
Q -4.6 -1.35 -4.75 -1.35 -5.2 -1.35 -5.55 -0.8
L -5.45 -1.3 -6.15 -1.3 -6.7 1.35 -5.95 1.35 -5.8 0.5
Q -5.7 0 -5.6 -0.2
M -8.15 -1.35
Q -8.9 -1.35 -9.3 -0.8 -9.6 -0.35 -9.6 0.2 -9.6 0.75 -9.25 1.1 -8.95 1.4 -8.4 1.4 -8 1.4 -7.7 1.2 -7.4 1.05 -7.2 0.65
L -7.85 0.55
Q -8.05 0.9 -8.4 0.9 -8.6 0.9 -8.75 0.75 -8.9 0.6 -8.9 0.3
L -8.9 0.25 -7.1 0.25
Q -7.05 0.05 -7.05 -0.2 -7.05 -0.75 -7.35 -1.05 -7.65 -1.35 -8.15 -1.35
M -7.7 -0.2
L -8.85 -0.2
Q -8.8 -0.5 -8.6 -0.7 -8.45 -0.85 -8.2 -0.85 -8 -0.85 -7.85 -0.7 -7.7 -0.55 -7.7 -0.25
L -7.7 -0.2
M -10.7 -1.3
L -10.8 -0.85
Q -10.9 -1.1 -11.15 -1.2 -11.35 -1.35 -11.6 -1.35 -11.95 -1.35 -12.25 -1.15 -12.55 -0.95 -12.7 -0.55 -12.9 -0.2 -12.9 0.3 -12.9 0.8 -12.65 1.1 -12.4 1.35 -12 1.35 -11.6 1.35 -11.25 1.05
L -11.25 1.2
Q -11.3 1.5 -11.35 1.6 -11.45 1.75 -11.55 1.8 -11.65 1.9 -11.9 1.9 -12.05 1.9 -12.1 1.85 -12.2 1.85 -12.25 1.75 -12.3 1.7 -12.3 1.6
L -13.05 1.5
Q -13.05 1.55 -13.05 1.6 -13.05 2.05 -12.75 2.25 -12.45 2.4 -11.9 2.4 -11.65 2.4 -11.45 2.4 -11.25 2.35 -11.1 2.25 -10.95 2.15 -10.85 2.05 -10.75 1.9 -10.65 1.65 -10.6 1.45 -10.5 0.9
L -10 -1.3 -10.7 -1.3
M -12.1 -0.25
Q -12 -0.55 -11.85 -0.7 -11.7 -0.85 -11.5 -0.85 -11.3 -0.85 -11.15 -0.65 -11 -0.5 -11 -0.2 -11 0 -11.1 0.3 -11.2 0.55 -11.35 0.7 -11.55 0.85 -11.7 0.85 -11.9 0.85 -12.05 0.65 -12.2 0.5 -12.2 0.2 -12.2 0 -12.1 -0.25
M -15.15 -0.35
Q -15.05 -0.6 -14.85 -0.7 -14.65 -0.85 -14.5 -0.85 -14.35 -0.85 -14.3 -0.75 -14.2 -0.7 -14.2 -0.55 -14.2 -0.5 -14.3 -0.15
L -14.6 1.35 -13.9 1.35 -13.55 -0.15
Q -13.5 -0.55 -13.5 -0.65 -13.5 -1 -13.65 -1.15 -13.85 -1.35 -14.2 -1.35 -14.45 -1.35 -14.65 -1.25 -14.85 -1.15 -15.15 -0.95
L -15.05 -1.3 -15.75 -1.3 -16.3 1.35 -15.55 1.35 -15.35 0.25
Q -15.25 -0.2 -15.15 -0.35
M -18.35 -0.55
Q -18.3 -0.7 -18.2 -0.75 -18.1 -0.85 -17.9 -0.85 -17.7 -0.85 -17.6 -0.75 -17.5 -0.7 -17.5 -0.6 -17.5 -0.5 -17.55 -0.35 -17.75 -0.3 -18.25 -0.25 -18.85 -0.2 -19.1 0.05 -19.3 0.25 -19.3 0.65 -19.3 1 -19.1 1.2 -18.9 1.4 -18.55 1.4 -18.35 1.4 -18.15 1.3 -17.95 1.25 -17.8 1.05 -17.8 1.2 -17.75 1.35
L -17.05 1.35
Q -17.1 1.15 -17.1 0.95 -17.1 0.8 -17 0.3 -16.85 -0.25 -16.85 -0.4 -16.85 -0.55 -16.85 -0.65 -16.85 -0.95 -17.05 -1.15 -17.3 -1.35 -17.85 -1.35 -18.3 -1.35 -18.6 -1.15 -18.9 -0.95 -19.05 -0.6
L -18.35 -0.55
M -17.65 0.1
L -17.7 0.2
Q -17.75 0.45 -17.8 0.6 -17.85 0.7 -18 0.8 -18.15 0.9 -18.3 0.9 -18.45 0.9 -18.55 0.8 -18.65 0.7 -18.65 0.6 -18.65 0.45 -18.55 0.35 -18.35 0.2 -17.85 0.15 -17.7 0.15 -17.65 0.1
M -20.45 -0.95
Q -20.7 -1.35 -21.25 -1.35 -21.85 -1.35 -22.2 -0.85 -22.55 -0.35 -22.55 0.3 -22.55 0.85 -22.3 1.15 -22.05 1.4 -21.65 1.4 -21.4 1.4 -21.2 1.35 -21 1.25 -20.8 1.05
L -20.9 1.35 -20.2 1.35 -19.45 -2.3 -20.15 -2.3 -20.45 -0.95
M -21.65 -0.5
Q -21.45 -0.85 -21.15 -0.85 -20.95 -0.85 -20.8 -0.65 -20.65 -0.5 -20.65 -0.2 -20.65 0.05 -20.75 0.35 -20.85 0.6 -21 0.75 -21.15 0.9 -21.35 0.9 -21.55 0.9 -21.7 0.7 -21.85 0.55 -21.85 0.25 -21.85 -0.15 -21.65 -0.5
M -24.8 -0.35
Q -24.7 -0.6 -24.5 -0.7 -24.3 -0.85 -24.15 -0.85 -24 -0.85 -23.95 -0.75 -23.85 -0.7 -23.85 -0.55 -23.85 -0.5 -23.95 -0.15
L -24.25 1.35 -23.55 1.35 -23.2 -0.15
Q -23.15 -0.55 -23.15 -0.65 -23.15 -1 -23.3 -1.15 -23.5 -1.35 -23.85 -1.35 -24.1 -1.35 -24.3 -1.25 -24.5 -1.15 -24.8 -0.95
L -24.7 -1.3 -25.4 -1.3 -25.95 1.35 -25.2 1.35 -25 0.25
Q -24.9 -0.2 -24.8 -0.35
M -26.35 -0.2
Q -26.35 -0.75 -26.65 -1.05 -26.95 -1.35 -27.45 -1.35 -28.2 -1.35 -28.6 -0.8 -28.9 -0.35 -28.9 0.2 -28.9 0.75 -28.55 1.1 -28.25 1.4 -27.7 1.4 -27.3 1.4 -27 1.2 -26.7 1.05 -26.5 0.65
L -27.15 0.55
Q -27.35 0.9 -27.7 0.9 -27.9 0.9 -28.05 0.75 -28.2 0.6 -28.2 0.3
L -28.2 0.25 -26.4 0.25
Q -26.35 0.05 -26.35 -0.2
M -28.15 -0.2
Q -28.1 -0.5 -27.9 -0.7 -27.75 -0.85 -27.5 -0.85 -27.3 -0.85 -27.15 -0.7 -27 -0.55 -27 -0.25
L -27 -0.2 -28.15 -0.2
M -33.15 -1.15
Q -33.45 -0.95 -33.6 -0.55 -33.8 -0.2 -33.8 0.3 -33.8 0.8 -33.55 1.1 -33.3 1.35 -32.9 1.35 -32.5 1.35 -32.15 1.05
L -32.15 1.2
Q -32.2 1.5 -32.25 1.6 -32.35 1.75 -32.45 1.8 -32.55 1.9 -32.8 1.9 -32.95 1.9 -33 1.85 -33.1 1.85 -33.15 1.75 -33.2 1.7 -33.2 1.6
L -33.95 1.5
Q -33.95 1.55 -33.95 1.6 -33.95 2.05 -33.65 2.25 -33.35 2.4 -32.8 2.4 -32.55 2.4 -32.35 2.4 -32.15 2.35 -32 2.25 -31.85 2.15 -31.75 2.05 -31.65 1.9 -31.55 1.65 -31.5 1.45 -31.4 0.9
L -30.9 -1.3 -31.6 -1.3 -31.7 -0.85
Q -31.8 -1.1 -32.05 -1.2 -32.25 -1.35 -32.5 -1.35 -32.85 -1.35 -33.15 -1.15
M -32.75 -0.7
Q -32.6 -0.85 -32.4 -0.85 -32.2 -0.85 -32.05 -0.65 -31.9 -0.5 -31.9 -0.2 -31.9 0 -32 0.3 -32.1 0.55 -32.25 0.7 -32.45 0.85 -32.6 0.85 -32.8 0.85 -32.95 0.65 -33.1 0.5 -33.1 0.2 -33.1 0 -33 -0.25 -32.9 -0.55 -32.75 -0.7
M -37.55 -1.3
L -38.25 -1.3 -38.8 1.35 -38.1 1.35 -37.55 -1.3
M -36.05 -0.35
Q -35.95 -0.6 -35.75 -0.7 -35.55 -0.85 -35.4 -0.85 -35.25 -0.85 -35.2 -0.75 -35.1 -0.7 -35.1 -0.55 -35.1 -0.5 -35.2 -0.15
L -35.5 1.35 -34.8 1.35 -34.45 -0.15
Q -34.4 -0.55 -34.4 -0.65 -34.4 -1 -34.55 -1.15 -34.75 -1.35 -35.1 -1.35 -35.35 -1.35 -35.55 -1.25 -35.75 -1.15 -36.05 -0.95
L -35.95 -1.3 -36.65 -1.3 -37.2 1.35 -36.45 1.35 -36.25 0.25
Q -36.15 -0.2 -36.05 -0.35
M -38.05 -2.3
L -38.15 -1.65 -37.45 -1.65 -37.3 -2.3 -38.05 -2.3
M -40.8 -0.15
L -40.95 -1.3 -41.65 -1.3 -41.15 1.35 -40.5 1.35 -38.9 -1.3 -39.65 -1.3 -40.35 -0.2
Q -40.35 -0.1 -40.5 0.15 -40.65 0.45 -40.7 0.5 -40.7 0.35 -40.8 -0.15
M -43.15 -0.75
Q -43.05 -0.7 -43.05 -0.6 -43.05 -0.5 -43.1 -0.35 -43.3 -0.3 -43.8 -0.25 -44.4 -0.2 -44.65 0.05 -44.85 0.25 -44.85 0.65 -44.85 1 -44.65 1.2 -44.45 1.4 -44.1 1.4 -43.9 1.4 -43.7 1.3 -43.5 1.25 -43.35 1.05 -43.35 1.2 -43.3 1.35
L -42.6 1.35
Q -42.65 1.15 -42.65 0.95 -42.65 0.8 -42.55 0.3 -42.4 -0.25 -42.4 -0.4 -42.4 -0.55 -42.4 -0.65 -42.4 -0.95 -42.6 -1.15 -42.85 -1.35 -43.4 -1.35 -43.85 -1.35 -44.15 -1.15 -44.45 -0.95 -44.6 -0.6
L -43.9 -0.55
Q -43.85 -0.7 -43.75 -0.75 -43.65 -0.85 -43.45 -0.85 -43.25 -0.85 -43.15 -0.75
M -43.2 0.1
L -43.25 0.2
Q -43.3 0.45 -43.35 0.6 -43.4 0.7 -43.55 0.8 -43.7 0.9 -43.85 0.9 -44 0.9 -44.1 0.8 -44.2 0.7 -44.2 0.6 -44.2 0.45 -44.1 0.35 -43.9 0.2 -43.4 0.15 -43.25 0.15 -43.2 0.1
M -46.65 -1.75
Q -46.3 -1.75 -46.15 -1.65 -46 -1.5 -45.95 -1.25
L -45.25 -1.25
Q -45.3 -1.75 -45.65 -2.05 -46 -2.35 -46.65 -2.35 -47.25 -2.35 -47.6 -2.05 -47.95 -1.75 -47.95 -1.3 -47.95 -1.05 -47.8 -0.85 -47.7 -0.65 -47.5 -0.5 -47.3 -0.4 -46.9 -0.2 -46.45 0 -46.35 0.05 -46.25 0.15 -46.25 0.35 -46.25 0.5 -46.4 0.65 -46.55 0.8 -46.95 0.8 -47.4 0.8 -47.55 0.6 -47.65 0.45 -47.65 0.15
L -48.4 0.15
Q -48.4 0.55 -48.25 0.8 -48.1 1.1 -47.75 1.25 -47.4 1.4 -46.95 1.4 -46.25 1.4 -45.9 1.05 -45.5 0.75 -45.5 0.25 -45.5 -0.15 -45.75 -0.4 -45.9 -0.55 -46.55 -0.85 -46.95 -1 -47.1 -1.1 -47.2 -1.2 -47.2 -1.4 -47.2 -1.55 -47.1 -1.65 -46.95 -1.75 -46.65 -1.75 Z"/>

<path fill="#FF3300" stroke="none" d="
M 47.3 -0.2
Q 47.4 -0.45 47.6 -0.6 47.8 -0.75 48 -0.75 48.1 -0.75 48.2 -0.7
L 48.45 -1.3
Q 48.3 -1.35 48.15 -1.35 47.7 -1.35 47.35 -0.8
L 47.45 -1.3 46.75 -1.3 46.2 1.35 46.95 1.35 47.1 0.5
Q 47.2 0 47.3 -0.2
M 45.55 -1.05
Q 45.25 -1.35 44.75 -1.35 44 -1.35 43.6 -0.8 43.3 -0.35 43.3 0.2 43.3 0.75 43.65 1.1 43.95 1.4 44.5 1.4 44.9 1.4 45.2 1.2 45.5 1.05 45.7 0.65
L 45.05 0.55
Q 44.85 0.9 44.5 0.9 44.3 0.9 44.15 0.75 44 0.6 44 0.3
L 44 0.25 45.8 0.25
Q 45.85 0.05 45.85 -0.2 45.85 -0.75 45.55 -1.05
M 45.2 -0.2
L 44.05 -0.2
Q 44.1 -0.5 44.3 -0.7 44.45 -0.85 44.7 -0.85 44.9 -0.85 45.05 -0.7 45.2 -0.55 45.2 -0.25
L 45.2 -0.2
M 41.4 -2.3
L 40.7 -2.3 39.9 1.35 40.65 1.35 40.85 0.3
Q 40.95 -0.2 41 -0.3 41.1 -0.55 41.35 -0.7 41.5 -0.85 41.7 -0.85 41.8 -0.85 41.9 -0.75 42 -0.7 42 -0.55 42 -0.5 41.95 -0.25
L 41.6 1.35 42.3 1.35 42.65 -0.2
Q 42.7 -0.55 42.7 -0.7 42.7 -1 42.55 -1.15 42.35 -1.35 42 -1.35 41.8 -1.35 41.55 -1.25 41.35 -1.2 41.1 -1
L 41.4 -2.3
M 38.3 -1.3
L 38.2 -0.75 38.55 -0.75 38.3 0.3
Q 38.2 0.75 38.2 0.85 38.2 1.1 38.4 1.25 38.55 1.4 38.95 1.4 39.15 1.4 39.3 1.35
L 39.45 0.85
Q 39.25 0.85 39.2 0.85 39.05 0.85 39 0.8 38.95 0.75 38.95 0.7 38.95 0.65 39 0.35
L 39.25 -0.75 39.7 -0.75 39.8 -1.3 39.35 -1.3 39.55 -2.2 38.75 -1.7 38.65 -1.3 38.3 -1.3
M 37.3 -1.05
Q 37 -1.35 36.5 -1.35 35.75 -1.35 35.35 -0.8 35.05 -0.35 35.05 0.2 35.05 0.75 35.4 1.1 35.7 1.4 36.25 1.4 36.65 1.4 36.95 1.2 37.25 1.05 37.45 0.65
L 36.8 0.55
Q 36.6 0.9 36.25 0.9 36.05 0.9 35.9 0.75 35.75 0.6 35.75 0.3
L 35.75 0.25 37.55 0.25
Q 37.6 0.05 37.6 -0.2 37.6 -0.75 37.3 -1.05
M 36.95 -0.25
L 36.95 -0.2 35.8 -0.2
Q 35.85 -0.5 36.05 -0.7 36.2 -0.85 36.45 -0.85 36.65 -0.85 36.8 -0.7 36.95 -0.55 36.95 -0.25
M 32.4 -1.15
Q 32.1 -0.95 31.95 -0.55 31.75 -0.2 31.75 0.3 31.75 0.8 32 1.1 32.25 1.35 32.65 1.35 33.05 1.35 33.4 1.05
L 33.4 1.2
Q 33.35 1.5 33.3 1.6 33.2 1.75 33.1 1.8 33 1.9 32.75 1.9 32.6 1.9 32.55 1.85 32.45 1.85 32.4 1.75 32.35 1.7 32.35 1.6
L 31.6 1.5
Q 31.6 1.55 31.6 1.6 31.6 2.05 31.9 2.25 32.2 2.4 32.75 2.4 33 2.4 33.2 2.4 33.4 2.35 33.55 2.25 33.7 2.15 33.8 2.05 33.9 1.9 34 1.65 34.05 1.45 34.15 0.9
L 34.65 -1.3 33.95 -1.3 33.85 -0.85
Q 33.75 -1.1 33.5 -1.2 33.3 -1.35 33.05 -1.35 32.7 -1.35 32.4 -1.15
M 32.55 -0.25
Q 32.65 -0.55 32.8 -0.7 32.95 -0.85 33.15 -0.85 33.35 -0.85 33.5 -0.65 33.65 -0.5 33.65 -0.2 33.65 0 33.55 0.3 33.45 0.55 33.3 0.7 33.1 0.85 32.95 0.85 32.75 0.85 32.6 0.65 32.45 0.5 32.45 0.2 32.45 0 32.55 -0.25
M 29.95 -1.35
Q 29.3 -1.35 28.85 -0.9 28.45 -0.5 28.45 0.25 28.45 0.55 28.6 0.85 28.75 1.1 29.05 1.25 29.3 1.4 29.7 1.4 30.4 1.4 30.8 0.95 31.2 0.5 31.2 -0.15 31.2 -0.7 30.9 -1.05 30.55 -1.35 29.95 -1.35
M 29.95 -0.8
Q 30.2 -0.8 30.35 -0.65 30.5 -0.5 30.5 -0.25 30.5 0.25 30.2 0.6 30 0.85 29.7 0.85 29.5 0.85 29.35 0.7 29.2 0.55 29.2 0.25 29.2 0 29.3 -0.25 29.4 -0.55 29.55 -0.65 29.75 -0.8 29.95 -0.8
M 25.65 -1.7
L 26.75 -1.7 26.1 1.35 26.85 1.35 27.5 -1.7 28.55 -1.7 28.65 -2.3 25.8 -2.3 25.65 -1.7 Z"/>
</g>

<g id="Symbol_3_0_Layer0_0_FILL">
<path fill="#000000" stroke="none" d="
M 39.4 -1.1
L 39.4 -5.5 47.85 -5.5 47.85 -7.15 37.5 -7.15 37.5 7.15 48.15 7.15 48.15 5.45 39.4 5.45 39.4 0.6 47.3 0.6 47.3 -1.1 39.4 -1.1
M 36.25 -7.15
L 34.05 -7.15 31.25 -2.95
Q 30.35 -1.55 29.7 -0.45 29 -1.65 28.25 -2.85
L 25.4 -7.15 23.1 -7.15 28.65 1.1 28.65 7.15 30.5 7.15 30.5 1.1 36.25 -7.15
M 13.7 -1.1
L 13.7 -5.5 22.15 -5.5 22.15 -7.15 11.8 -7.15 11.8 7.15 22.45 7.15 22.45 5.45 13.7 5.45 13.7 0.6 21.6 0.6 21.6 -1.1 13.7 -1.1
M -0.8 -5.45
Q -1.4 -4.5 -1.4 -3.4 -1.4 -1.7 -0.1 -0.55 0.85 0.3 3.15 0.9 5 1.35 5.5 1.5 6.25 1.75 6.55 2.15 6.8 2.5 6.8 3 6.8 3.8 6.1 4.4 5.4 4.95 4 4.95 2.7 4.95 1.9 4.3 1.15 3.65 0.9 2.2
L -1.95 2.5
Q -1.65 4.9 -0.2 6.15 1.25 7.4 4 7.4 5.85 7.4 7.1 6.9 8.35 6.35 9.05 5.3 9.7 4.2 9.7 3 9.7 1.6 9.15 0.7 8.55 -0.2 7.55 -0.75 6.55 -1.3 4.45 -1.8 2.35 -2.3 1.8 -2.75 1.35 -3.1 1.35 -3.6 1.35 -4.15 1.8 -4.5 2.55 -5 3.8 -5 5 -5 5.6 -4.55 6.25 -4.05 6.4 -2.95
L 9.3 -3.05
Q 9.25 -5.05 7.9 -6.25 6.5 -7.4 3.8 -7.4 2.15 -7.4 1 -6.9 -0.15 -6.4 -0.8 -5.45
M -3.6 -3.25
Q -4.1 -4.65 -5 -5.55 -5.9 -6.5 -7.15 -6.9 -8.1 -7.15 -9.85 -7.15
L -15.15 -7.15 -15.15 7.15 -9.7 7.15
Q -8.1 7.15 -7.15 6.85 -5.9 6.45 -5.15 5.7 -4.15 4.75 -3.6 3.2 -3.15 1.9 -3.15 0.15 -3.15 -1.9 -3.6 -3.25
M -12.25 -4.75
L -10.95 -4.75
Q -9.2 -4.75 -8.6 -4.6 -7.8 -4.45 -7.25 -3.95 -6.75 -3.45 -6.45 -2.55 -6.15 -1.65 -6.15 0 -6.15 1.65 -6.45 2.65 -6.75 3.6 -7.2 4 -7.65 4.45 -8.35 4.6 -8.9 4.75 -10.1 4.75
L -12.25 4.75 -12.25 -4.75
M -23 -7.15
L -29.1 -7.15 -29.1 7.15 -26.2 7.15 -26.2 1.15 -25.6 1.15
Q -24.6 1.15 -24.15 1.35 -23.7 1.5 -23.3 1.95 -22.85 2.35 -21.75 4.05
L -19.65 7.15 -16.2 7.15 -17.95 4.35
Q -19 2.7 -19.6 2.05 -20.2 1.4 -21.15 0.85 -19.25 0.55 -18.3 -0.5 -17.4 -1.55 -17.4 -3.15 -17.4 -4.4 -18 -5.4 -18.65 -6.4 -19.65 -6.8 -20.7 -7.15 -23 -7.15
M -26.2 -1.1
L -26.2 -4.75 -23.95 -4.75
Q -22.2 -4.75 -21.85 -4.7 -21.15 -4.6 -20.75 -4.15 -20.35 -3.7 -20.35 -2.95 -20.35 -2.3 -20.65 -1.9 -20.95 -1.45 -21.45 -1.3 -22 -1.1 -24.05 -1.1
L -26.2 -1.1
M -31.35 -7.15
L -34.25 -7.15 -34.25 7.15 -31.35 7.15 -31.35 -7.15
M -42.35 -7.15
L -48.1 -7.15 -48.1 7.15 -43.2 7.15
Q -40.45 7.15 -39.75 7.05 -38.55 6.95 -37.8 6.4 -37 5.8 -36.55 4.9 -36.1 4 -36.1 3 -36.1 1.75 -36.8 0.85 -37.5 -0.1 -38.8 -0.45 -37.9 -0.9 -37.35 -1.7 -36.8 -2.55 -36.8 -3.55 -36.8 -4.5 -37.25 -5.25 -37.65 -6 -38.35 -6.45 -39 -6.9 -39.8 -7 -40.65 -7.15 -42.35 -7.15
M -45.2 -4.8
L -43.55 -4.8
Q -41.5 -4.8 -41.05 -4.75 -40.35 -4.65 -39.95 -4.25 -39.6 -3.8 -39.6 -3.15 -39.6 -2.45 -40.05 -2.05 -40.45 -1.6 -41.2 -1.5 -41.6 -1.45 -43.3 -1.45
L -45.2 -1.45 -45.2 -4.8
M -40.3 1.1
Q -39.7 1.3 -39.4 1.75 -39.1 2.2 -39.1 2.85 -39.1 3.6 -39.5 4.1 -39.9 4.55 -40.55 4.65 -40.95 4.75 -42.5 4.75
L -45.2 4.75 -45.2 0.9 -42.85 0.9
Q -40.9 0.9 -40.3 1.1 Z"/>
</g>
</defs>

<g transform="matrix( 1.2629852294921875, 0, 0, 1.2629852294921875, 100,25) ">
<g transform="matrix( 0.7853240966796875, 0, 0, 0.7853240966796875, -51.2,0) ">
<g transform="matrix( 1, 0, 0, 1, 0,0) ">
<use xlink:href="#Symbol_1_0_Layer0_0_FILL"/>
</g>

<g transform="matrix( 0.415313720703125, 0, 0, 0.415313720703125, -27.95,-23.25) ">
<g transform="matrix( 1, 0, 0, 1, 0,0) ">
<use xlink:href="#Symbol_7_0_Layer0_0_FILL"/>
</g>
</g>
</g>

<g transform="matrix( 1, 0, 0, 1, 24.75,13.9) ">
<g transform="matrix( 1, 0, 0, 1, 0,0) ">
<use xlink:href="#Symbol_2_0_Layer0_0_FILL"/>
</g>
</g>

<g transform="matrix( 1, 0, 0, 1, 24.45,1.8) ">
<g transform="matrix( 1, 0, 0, 1, 0,0) ">
<use xlink:href="#Symbol_3_0_Layer0_0_FILL"/>
</g>
</g>
</g>
</svg>
